<?xml version="1.0" encoding="utf-8"?>
<!-- Generator: Adobe Illustrator 26.0.1, SVG Export Plug-In . SVG Version: 6.00 Build 0)  -->
<svg version="1.1" id="Layer_1" xmlns="http://www.w3.org/2000/svg" xmlns:xlink="http://www.w3.org/1999/xlink" x="0px" y="0px"
	 viewBox="0 0 1000 1000" style="enable-background:new 0 0 1000 1000;" xml:space="preserve">
<style type="text/css">
	.st0{fill:#2E3191;}
	.st1{fill:#00ADEE;}
	.st2{fill:#0AAA4D;}
	.st3{fill:#11AF4B;}
	.st4{fill:#02A550;}
	.st5{fill:#52B648;}
	.st6{fill:url(#SVGID_1_);}
</style>
<g>
	<g>
		<path class="st0" d="M393,583.2l-0.4-0.1c-8.2-1.5-13.3-7.3-13.2-17.2v-0.2v-68.3h15.4V564c0.3,6.9,1.2,7.4,5.1,8.3l3.1,0.4
			l-8.8,10l-0.6,0.7L393,583.2z"/>
		<path class="st0" d="M487,535.1c-8.8,0-12.5,1.7-19.6,5.7v40.5H452v-37.6v-0.1c0-4-0.7-6-1.5-6.7c-0.9-0.9-2.4-1.7-5-1.7l0,0
			c-8.7,0-12.4,1.7-19.4,5.7v40.5h-13.8h-1.7V525h15.5v4.6c5.6-2.9,12.4-6.2,20.8-6.2h0.1c7.1,0,13.2,3,17,8.7
			c7.6-4.4,14.7-8.7,24.6-8.7c5.8,0,12.9,1.9,17.1,6.3c4.2,4.4,4.9,10.9,4.9,19.3v32.2h-16.8v-37.7c0-4.1-0.7-6-1.5-6.8
			C491.3,535.9,489.7,535.1,487,535.1"/>
		<path class="st0" d="M545.8,582.9L545.8,582.9c-7.4,0-14.2-2.4-19.1-7.3c-4.9-4.9-7.9-12.2-7.9-21.6v0c0-10.7,3.7-18.5,9.7-23.5
			s14.1-7.1,22.8-7.1c11.2,0,21,3.1,28.4,6.6l0.6,0.3v51.1h-15.6v-5.5C559.8,579.9,554.5,582.9,545.8,582.9L545.8,582.9z
			 M550.4,534.3c-9.8,0-14.8,7.6-15,18.5c0.1,10.4,6,17.2,14.2,17.2c4.8,0,11.8-2,15.1-4.8v-28.4
			C560.3,535.2,554.1,534.3,550.4,534.3L550.4,534.3z"/>
		<path class="st0" d="M356.2,581.2l-30.7-63.7l-15.9,32.7h30.2l-0.4,1.3c-1.4,3.9-2.3,6.5-4.5,7.8c-2.3,1.2-4.9,1.1-9,1.1h-21.3
			l-10.1,20.8h-14l41-83.3l0.3-0.5h14.1l39.7,83.8L356.2,581.2L356.2,581.2z M322.4,499.4v-1V499.4z"/>
		<polygon class="st0" points="702.8,581.2 701.8,581.2 701.8,529.7 717.3,523.5 717.3,581.2 		"/>
		<path class="st0" d="M591.7,581.2V525h15.5v4.5c6.8-4.6,12.8-6.1,20.6-6.1c0.6,0,1.2,0,1.8,0h1.1l-2.6,12.9l-0.9-0.2
			c-1.6-0.3-3.3-0.4-5.2-0.4c-5.2,0-11,1.3-14.9,4.1v41.3h-15.4V581.2z"/>
		<path class="st0" d="M656.3,582.9L656.3,582.9c-7.4,0-14.2-2.4-19.1-7.3c-4.9-4.9-7.9-12.2-7.9-21.6v-0.1
			c0-10.7,3.7-18.5,9.7-23.5s14.1-7.1,22.8-7.1c11.1,0,21,3.1,28.4,6.6l0.6,0.3v51.1h-15.5v-5.5c-4.9,4.2-10.3,7.2-18.8,7.2h-0.2
			V582.9z M660.9,534.3c-9.7,0-14.8,7.6-15,18.5c0.2,10.5,6,17.2,14.2,17.2c4.8,0,11.8-2,15.2-4.8v-28.4
			C670.8,535.2,664.6,534.3,660.9,534.3L660.9,534.3z"/>
		<path class="st0" d="M709.4,520.8c-5.5,0-9.9-4.1-10-9.3c0-5.2,4.5-9.3,10-9.3s9.9,4.1,10,9.3
			C719.3,516.7,714.9,520.8,709.4,520.8"/>
		<polygon class="st0" points="698.8,454.7 698.8,364.7 698.8,362.7 717.2,362.7 717.2,454.7 		"/>
		<polygon class="st0" points="493.7,454.7 493.7,389 493.7,387.6 512.1,382.3 512.1,454.7 		"/>
		<path class="st0" d="M452.3,442.4h23.3v12.4h-1.9h-1.3H402h-0.2c-6,0-10.1-1.1-12.8-4.3c-2.7-3.2-3.7-7.7-5.3-14.2
			c-1.9-8.4-2.9-13.4-4.3-19.3c-0.9-4.1-1.8-6.9-2.9-8.4c-1.1-1.4-2.4-2.1-5.7-2.1h-4.2l10,48.2h-65.8l0.1-0.2
			c-9.6-0.7-16.1-4.2-20.1-9.7c-4.4-6-5.7-13.9-5.7-22.4v-12.7v-0.5l0.3-0.4c5.5-9.5,14.8-20.4,14.8-20.4l3.4-4v39.8
			c0,7.9,1,12.5,2.9,14.7c1.9,2.3,5.3,3.3,11.7,3.3H356l-9.7-48h2.4h22.5c12.8-0.1,19.4,9.2,21.8,20.8c1.4,6.3,3.3,14.5,4.2,18.6
			c1,4.6,1.6,7,2.2,7.6c0.4,0.6,1.5,1,5.3,0.9h17.8c-4.4-4-6.9-8.8-6.8-15.5c0-9,5.1-15.6,12.2-19.6s16.4-5.8,25.5-5.8
			c6.8,0,13.7,1.1,19.7,3.3l1.3,0.5v1.3v9.1v1.8l-1.7,0.2l-1.3,0.1l-0.6-0.6c-3.4-3.3-9-5.3-17.4-5.3c-7,0-11.8,1.2-14.8,3.6
			c-2.9,2.3-4.4,5.8-4.4,11.4s1.7,9.3,4.7,11.8C441.7,441,446.3,442.4,452.3,442.4"/>
		<path class="st0" d="M488.8,484.9l-0.9-0.6V469l1.5-0.3l2-0.4l0.7,1.2c3.9,6.3,11.6,9.4,18.5,9.4c5.1,0,9.5-1,12.7-3.9
			c3.1-2.8,5.4-7.8,5.4-16.7v-31.6v-1.9h18.5v1.9c0,7.9,1.3,11.5,3.5,13.3s6.3,2.4,12.8,2.4h12.9c0-0.6-0.1-1.3-0.1-1.9
			c0-9.6,4-16.8,10-21.4s13.8-6.8,21.5-6.8s15.5,2.1,21.4,6.7c6,4.6,10.1,11.8,10.1,21.4c0,0.7,0,1.4-0.1,2.1h16.3
			c6.3,0,8-1.3,9.9-3.9c2-2.7,3-7.6,3-15.5v-58.4v-1.9H687v59.8c0,8.5-1.2,16.3-5.5,22.3c-4.1,5.8-11.1,9.4-21.4,9.9v0.1h-24.6
			c-5.6,9.1-16.4,13.5-27.6,13.5c-11.2,0-22-4.4-27.7-13.5h-19v-0.1c-5.4-0.1-10-0.8-13.9-2v7.8c0,9.8-4.2,17.5-10.6,22.5
			c-6.4,5.1-15.1,7.5-24.1,7.5C502.7,490.5,493.1,487.9,488.8,484.9 M606.2,457.3c5.1,0,8-1.8,9.9-4.7c1.9-2.9,2.7-7.3,2.7-12.2
			c0-4.9-0.9-9.3-2.9-12.3s-4.8-4.8-9.8-4.8c-4.9,0.1-7.7,1.8-9.7,4.8c-1.9,3-2.8,7.4-2.8,12.3s0.8,9.3,2.7,12.2
			C598.4,455.5,601.1,457.2,606.2,457.3"/>
		<path class="st0" d="M309.3,471.3c0-5.2,4.6-9.3,10.1-9.4c5.5,0,10.1,4.1,10.1,9.4c0,5.2-4.6,9.3-10.1,9.3
			C313.8,480.6,309.3,476.5,309.3,471.3"/>
		<path class="st0" d="M333,471.3c0-5.2,4.6-9.3,10.1-9.4c5.5,0,10.1,4.1,10.1,9.4c0,5.2-4.6,9.3-10.1,9.3
			C337.6,480.6,333,476.5,333,471.3"/>
		<path class="st1" d="M497.1,370.5c-1.1-0.9-2.4-1.8-3.7-2.6c-1-0.7-2-1.4-3.1-2c-1.3-0.9-2.7-1.7-4.2-2.5c-1-0.6-2.1-1.2-3.1-1.8
			c-1.5-0.8-2.9-1.6-4.4-2.3c-0.9-0.4-1.8-0.9-2.7-1.3l0,0c-1.6-0.8-3.2-1.5-4.9-2.3l0,0c-26.8-12-59.5-19.8-79-23.2
			c-8.9-1.6-20.1,2.4-25.3,10.4c-1.9,2.7-0.5,4.7,2,4.8c80-0.1,115.4,18.3,124.9,24.4L497.1,370.5z"/>
		<path class="st2" d="M613.3,313.6c-6.7-1.6-13.2-2.8-19.3-3.7c-69.5,15.8-109.2,44.6-115.4,49.4c1.5,0.8,3,1.5,4.4,2.3
			C532.1,327.5,601.5,315.4,613.3,313.6"/>
		<path class="st3" d="M646.3,324.2c-7.2-3-14.5-5.5-21.6-7.5c-91.6,16.1-133.6,43.3-138.5,46.7c1.4,0.8,2.8,1.7,4.2,2.5
			C557.4,332.4,641.3,324.6,646.3,324.2"/>
		<path class="st1" d="M475.6,307.9c-3.6-3.1-8.6-2.6-13.9-0.3c-1.3,0.6-1.1,1.4,0.2,2.5c11.6,9.6,19.7,18.1,28.9,29.5
			c1.3-1,2.7-1.9,4.1-2.9C489.2,326.1,483.2,315.6,475.6,307.9"/>
		<path class="st1" d="M451.6,311.9c-5.5-3.7-15.5-3-19.9,1.4c-1.3,1.2-1.1,2,0.5,2.7c26.2,11.6,44.1,23.4,51.7,28.6
			c1.2-0.9,2.4-1.9,3.7-2.8C479.2,332.9,463.1,319.7,451.6,311.9"/>
		<path class="st1" d="M419,319.2c-5.9-1.9-13.4,0.6-17.2,4.5c-1.3,1.4-0.7,2.5,1.5,3c40.7,8.5,63,20,71.9,25.1
			c1.5-1.3,2.9-2.5,4.4-3.8C461.3,336.2,433.2,324.5,419,319.2"/>
		<path class="st4" d="M494.9,336.7c18.3-12.4,40.6-23.8,62.9-30.3c6,0,14.8,0.4,25.3,1.5c-7.4,1-53.3,9-107.1,50
			c-1.6-0.8-3.2-1.5-4.9-2.3c1.3-1.3,2.8-2.6,4.2-3.9c1.5-1.3,2.9-2.5,4.4-3.8c1.4-1.1,2.7-2.2,4.2-3.3c1.2-0.9,2.4-1.9,3.7-2.8
			c1.1-0.8,2.2-1.6,3.3-2.3C492.1,338.6,493.5,337.6,494.9,336.7"/>
		<path class="st5" d="M497.1,370.5c95.1-34,177.2-24.8,185.4-24.3c-8.1-6.5-16.8-12-25.7-16.5c-99.6,9.1-156.3,34.9-163.3,38.2
			C494.7,368.8,495.9,369.6,497.1,370.5L497.1,370.5z"/>
	</g>
	
		<linearGradient id="SVGID_1_" gradientUnits="userSpaceOnUse" x1="99.7" y1="326.39" x2="900.2" y2="326.39" gradientTransform="matrix(1 0 0 -1 0 997.89)">
		<stop  offset="0" style="stop-color:#148ACB"/>
		<stop  offset="0.1074" style="stop-color:#138DCE"/>
		<stop  offset="0.1964" style="stop-color:#0E98D6"/>
		<stop  offset="0.2785" style="stop-color:#07A9E4"/>
		<stop  offset="0.3308" style="stop-color:#00B8F1"/>
		<stop  offset="0.5" style="stop-color:#7EC251"/>
		<stop  offset="0.6764" style="stop-color:#67BD4D"/>
		<stop  offset="0.8622" style="stop-color:#56B849"/>
		<stop  offset="1" style="stop-color:#50B748"/>
	</linearGradient>
	<path class="st6" d="M900.2,637h-85c0,0-5.7,0-7.8,0.1c-69.9,0.8-166.1,6.6-276.2,44.5c-7.8,2.7-31,11.2-31,11.2l0,0
		c0,0-23.3-8.5-31.1-11.2c-109.8-37.7-197.7-43.7-267.5-44.5h-0.7H99.7v13.3h101.2h0.9c69.7,0.8,157.6,6.7,267.3,44.4
		c7.8,2.7,31.1,11.2,31.1,11.2l0,0c0,0,23.3-8.5,31-11.2c110.2-37.9,206.4-43.7,276.2-44.5c2.2,0,7.8-0.1,7.8-0.1h85L900.2,637
		L900.2,637z"/>
</g>
</svg>
